<svg width="100%" height="100%" viewBox="0 0 844 356" style="fill-rule:evenodd;clip-rule:evenodd;stroke-linejoin:round;stroke-miterlimit:2;"><rect id="Artboard1" x="0" y="0" width="843.75" height="355.297" style="fill:none;"/><text x="53.066px" y="225.807px" style="font-family:'BebasNeue-Regular', 'Bebas Neue', sans-serif;font-size:146.767px;">T<tspan x="105.047px 165.024px 216.862px 239.711px 289.407px 346.243px 399.366px 451.347px 474.195px 531.888px 582.584px 635.992px 687.973px 739.811px " y="225.807px 225.807px 225.807px 225.807px 225.807px 225.807px 225.807px 225.807px 225.807px 225.807px 225.807px 225.807px 225.807px 225.807px ">HE LAST BATTEN</tspan></text><text x="65.48px" y="290.078px" style="font-family:'SourceSansPro-SemiBold', 'Source Sans Pro', sans-serif;font-weight:600;font-size:62.698px;fill:#9e94be;">P<tspan x="97.559px 133.749px 169.178px 198.11px 234.859px 269.273px 301.555px 332.416px 364.495px 400.686px 428.653px 441.343px 476.315px 489.004px 518.749px 535.6px 569.862px 599.708px 636.456px 670.566px 701.427px 733.506px 769.696px " y="290.078px 290.078px 290.078px 290.078px 290.078px 290.078px 290.078px 290.078px 290.078px 290.078px 290.078px 290.078px 290.078px 290.078px 290.078px 290.078px 290.078px 290.078px 290.078px 290.078px 290.078px 290.078px 290.078px ">HOTOGRAPHY &amp; VIDEOGAPHY</tspan></text></svg>