<?xml version="1.0" encoding="UTF-8" standalone="no"?>
<svg
   width="100%"
   height="100%"
   viewBox="0 0 844 356"
   style="fill-rule:evenodd;clip-rule:evenodd;stroke-linejoin:round;stroke-miterlimit:2;"
   version="1.1"
   id="svg11"
   sodipodi:docname="slogan.svg"
   inkscape:version="1.1 (c68e22c387, 2021-05-23)"
   xmlns:inkscape="http://www.inkscape.org/namespaces/inkscape"
   xmlns:sodipodi="http://sodipodi.sourceforge.net/DTD/sodipodi-0.dtd"
   xmlns="http://www.w3.org/2000/svg"
   xmlns:svg="http://www.w3.org/2000/svg">
  <defs
     id="defs15" />
  <sodipodi:namedview
     id="namedview13"
     pagecolor="#ffffff"
     bordercolor="#666666"
     borderopacity="1.0"
     inkscape:pageshadow="2"
     inkscape:pageopacity="0.0"
     inkscape:pagecheckerboard="0"
     showgrid="false"
     showguides="true"
     inkscape:guide-bbox="true"
     inkscape:zoom="0.7184354"
     inkscape:cx="269.33528"
     inkscape:cy="92.562254"
     inkscape:window-width="1920"
     inkscape:window-height="1057"
     inkscape:window-x="1672"
     inkscape:window-y="-8"
     inkscape:window-maximized="1"
     inkscape:current-layer="svg11">
    <sodipodi:guide
       position="54.245747,209.21739"
       orientation="1,0"
       id="guide39" />
    <sodipodi:guide
       position="797.73157,27.334594"
       orientation="1,0"
       id="guide41" />
    <sodipodi:guide
       position="71.509561,114.85097"
       orientation="1,0"
       id="guide125" />
  </sodipodi:namedview>
  <rect
     style="fill:#fbfbf3;fill-opacity:1;fill-rule:evenodd;stroke-width:1.00051"
     id="rect43"
     width="726.22205"
     height="63.766727"
     x="71.50956"
     y="236.18034" />
  <rect
     id="Artboard1"
     x="0"
     y="0"
     width="843.75"
     height="355.297"
     style="fill:none;" />
  <text
     x="53.066px"
     y="225.807px"
     style="font-family:'BebasNeue-Regular', 'Bebas Neue', sans-serif;font-size:146.767px;"
     id="text5">T<tspan
   x="105.047px 165.024px 216.862px 239.711px 289.407px 346.243px 399.366px 451.347px 474.195px 531.888px 582.584px 635.992px 687.973px 739.811px "
   y="225.807px 225.807px 225.807px 225.807px 225.807px 225.807px 225.807px 225.807px 225.807px 225.807px 225.807px 225.807px 225.807px 225.807px "
   id="tspan3">HE LAST BATTEN</tspan></text>
  <text
     x="66.575562"
     y="289.18109"
     style="font-weight:600;font-size:62.5042px;font-family:SourceSansPro-SemiBold, 'Source Sans Pro', sans-serif;fill:#9e94be;stroke-width:0.996908"
     id="text9"
     transform="scale(0.99690809,1.0031015)">P<tspan
   x="98.555367 134.63348 169.95293 198.79549 235.43085 269.73846 301.92062 332.68625 364.66602 400.74518 428.62567 441.27643 476.14032 488.79007 518.44312 535.24194 569.39801 599.15186 635.78613 669.79065 700.55627 732.53607 768.6142"
   y="289.18109 289.18109 289.18109 289.18109 289.18109 289.18109 289.18109 289.18109 289.18109 289.18109 289.18109 289.18109 289.18109 289.18109 289.18109 289.18109 289.18109 289.18109 289.18109 289.18109 289.18109 289.18109 289.18109"
   id="tspan7"
   style="stroke-width:0.996908">HOTOGRAPHY &amp; VIDEOGAPHY</tspan></text>
</svg>
